<svg viewBox="0 0 460 420" width="320" xmlns="http://www.w3.org/2000/svg" fill="none"><rect x="4" y="4" width="452" height="412" rx="10" fill="#06090d" stroke="rgba(255,255,255,.08)"/><g><line x1="0" y1="0" x2="0" y2="420" stroke="#e0524f" stroke-opacity="0.14"/><line x1="12" y1="0" x2="12" y2="420" stroke="#e0524f" stroke-opacity="0.06"/><line x1="24" y1="0" x2="24" y2="420" stroke="#e0524f" stroke-opacity="0.06"/><line x1="36" y1="0" x2="36" y2="420" stroke="#e0524f" stroke-opacity="0.06"/><line x1="48" y1="0" x2="48" y2="420" stroke="#e0524f" stroke-opacity="0.06"/><line x1="60" y1="0" x2="60" y2="420" stroke="#e0524f" stroke-opacity="0.14"/><line x1="72" y1="0" x2="72" y2="420" stroke="#e0524f" stroke-opacity="0.06"/><line x1="84" y1="0" x2="84" y2="420" stroke="#e0524f" stroke-opacity="0.06"/><line x1="96" y1="0" x2="96" y2="420" stroke="#e0524f" stroke-opacity="0.06"/><line x1="108" y1="0" x2="108" y2="420" stroke="#e0524f" stroke-opacity="0.06"/><line x1="120" y1="0" x2="120" y2="420" stroke="#e0524f" stroke-opacity="0.14"/><line x1="132" y1="0" x2="132" y2="420" stroke="#e0524f" stroke-opacity="0.06"/><line x1="144" y1="0" x2="144" y2="420" stroke="#e0524f" stroke-opacity="0.06"/><line x1="156" y1="0" x2="156" y2="420" stroke="#e0524f" stroke-opacity="0.06"/><line x1="168" y1="0" x2="168" y2="420" stroke="#e0524f" stroke-opacity="0.06"/><line x1="180" y1="0" x2="180" y2="420" stroke="#e0524f" stroke-opacity="0.14"/><line x1="192" y1="0" x2="192" y2="420" stroke="#e0524f" stroke-opacity="0.06"/><line x1="204" y1="0" x2="204" y2="420" stroke="#e0524f" stroke-opacity="0.06"/><line x1="216" y1="0" x2="216" y2="420" stroke="#e0524f" stroke-opacity="0.06"/><line x1="228" y1="0" x2="228" y2="420" stroke="#e0524f" stroke-opacity="0.06"/><line x1="240" y1="0" x2="240" y2="420" stroke="#e0524f" stroke-opacity="0.14"/><line x1="252" y1="0" x2="252" y2="420" stroke="#e0524f" stroke-opacity="0.06"/><line x1="264" y1="0" x2="264" y2="420" stroke="#e0524f" stroke-opacity="0.06"/><line x1="276" y1="0" x2="276" y2="420" stroke="#e0524f" stroke-opacity="0.06"/><line x1="288" y1="0" x2="288" y2="420" stroke="#e0524f" stroke-opacity="0.06"/><line x1="300" y1="0" x2="300" y2="420" stroke="#e0524f" stroke-opacity="0.14"/><line x1="312" y1="0" x2="312" y2="420" stroke="#e0524f" stroke-opacity="0.06"/><line x1="324" y1="0" x2="324" y2="420" stroke="#e0524f" stroke-opacity="0.06"/><line x1="336" y1="0" x2="336" y2="420" stroke="#e0524f" stroke-opacity="0.06"/><line x1="348" y1="0" x2="348" y2="420" stroke="#e0524f" stroke-opacity="0.06"/><line x1="360" y1="0" x2="360" y2="420" stroke="#e0524f" stroke-opacity="0.14"/><line x1="372" y1="0" x2="372" y2="420" stroke="#e0524f" stroke-opacity="0.06"/><line x1="384" y1="0" x2="384" y2="420" stroke="#e0524f" stroke-opacity="0.06"/><line x1="396" y1="0" x2="396" y2="420" stroke="#e0524f" stroke-opacity="0.06"/><line x1="408" y1="0" x2="408" y2="420" stroke="#e0524f" stroke-opacity="0.06"/><line x1="420" y1="0" x2="420" y2="420" stroke="#e0524f" stroke-opacity="0.14"/><line x1="432" y1="0" x2="432" y2="420" stroke="#e0524f" stroke-opacity="0.06"/><line x1="444" y1="0" x2="444" y2="420" stroke="#e0524f" stroke-opacity="0.06"/><line x1="456" y1="0" x2="456" y2="420" stroke="#e0524f" stroke-opacity="0.06"/><line x1="0" y1="0" x2="460" y2="0" stroke="#e0524f" stroke-opacity="0.14"/><line x1="0" y1="12" x2="460" y2="12" stroke="#e0524f" stroke-opacity="0.06"/><line x1="0" y1="24" x2="460" y2="24" stroke="#e0524f" stroke-opacity="0.06"/><line x1="0" y1="36" x2="460" y2="36" stroke="#e0524f" stroke-opacity="0.06"/><line x1="0" y1="48" x2="460" y2="48" stroke="#e0524f" stroke-opacity="0.06"/><line x1="0" y1="60" x2="460" y2="60" stroke="#e0524f" stroke-opacity="0.14"/><line x1="0" y1="72" x2="460" y2="72" stroke="#e0524f" stroke-opacity="0.06"/><line x1="0" y1="84" x2="460" y2="84" stroke="#e0524f" stroke-opacity="0.06"/><line x1="0" y1="96" x2="460" y2="96" stroke="#e0524f" stroke-opacity="0.06"/><line x1="0" y1="108" x2="460" y2="108" stroke="#e0524f" stroke-opacity="0.06"/><line x1="0" y1="120" x2="460" y2="120" stroke="#e0524f" stroke-opacity="0.14"/><line x1="0" y1="132" x2="460" y2="132" stroke="#e0524f" stroke-opacity="0.06"/><line x1="0" y1="144" x2="460" y2="144" stroke="#e0524f" stroke-opacity="0.06"/><line x1="0" y1="156" x2="460" y2="156" stroke="#e0524f" stroke-opacity="0.06"/><line x1="0" y1="168" x2="460" y2="168" stroke="#e0524f" stroke-opacity="0.06"/><line x1="0" y1="180" x2="460" y2="180" stroke="#e0524f" stroke-opacity="0.14"/><line x1="0" y1="192" x2="460" y2="192" stroke="#e0524f" stroke-opacity="0.06"/><line x1="0" y1="204" x2="460" y2="204" stroke="#e0524f" stroke-opacity="0.06"/><line x1="0" y1="216" x2="460" y2="216" stroke="#e0524f" stroke-opacity="0.06"/><line x1="0" y1="228" x2="460" y2="228" stroke="#e0524f" stroke-opacity="0.06"/><line x1="0" y1="240" x2="460" y2="240" stroke="#e0524f" stroke-opacity="0.14"/><line x1="0" y1="252" x2="460" y2="252" stroke="#e0524f" stroke-opacity="0.06"/><line x1="0" y1="264" x2="460" y2="264" stroke="#e0524f" stroke-opacity="0.06"/><line x1="0" y1="276" x2="460" y2="276" stroke="#e0524f" stroke-opacity="0.06"/><line x1="0" y1="288" x2="460" y2="288" stroke="#e0524f" stroke-opacity="0.06"/><line x1="0" y1="300" x2="460" y2="300" stroke="#e0524f" stroke-opacity="0.14"/><line x1="0" y1="312" x2="460" y2="312" stroke="#e0524f" stroke-opacity="0.06"/><line x1="0" y1="324" x2="460" y2="324" stroke="#e0524f" stroke-opacity="0.06"/><line x1="0" y1="336" x2="460" y2="336" stroke="#e0524f" stroke-opacity="0.06"/><line x1="0" y1="348" x2="460" y2="348" stroke="#e0524f" stroke-opacity="0.06"/><line x1="0" y1="360" x2="460" y2="360" stroke="#e0524f" stroke-opacity="0.14"/><line x1="0" y1="372" x2="460" y2="372" stroke="#e0524f" stroke-opacity="0.06"/><line x1="0" y1="384" x2="460" y2="384" stroke="#e0524f" stroke-opacity="0.06"/><line x1="0" y1="396" x2="460" y2="396" stroke="#e0524f" stroke-opacity="0.06"/><line x1="0" y1="408" x2="460" y2="408" stroke="#e0524f" stroke-opacity="0.06"/><line x1="0" y1="420" x2="460" y2="420" stroke="#e0524f" stroke-opacity="0.14"/></g><polyline points="20,62 22,62 28,56 34,62 42,62 45,67 51,30 57,71 62,53 70,52 78,51 88,48 100,62 116,62 116,62 118,62 124,56 130,62 138,62 141,67 147,30 153,71 158,53 166,52 174,51 184,48 196,62 212,62 212,62 214,62 220,56 226,62 234,62 237,67 243,30 249,71 254,53 262,52 270,51 280,48 292,62 308,62 308,62 310,62 316,56 322,62 330,62 333,67 339,30 345,71 350,53 358,52 366,51 376,48 388,62 404,62" fill="none" stroke="rgba(240,246,252,.95)" stroke-width="2" stroke-linejoin="round" stroke-linecap="round"/><polyline points="62,53 70,52 78,51 88,48 100,62" fill="none" stroke="#e0524f" stroke-width="2.4" stroke-linejoin="round" stroke-linecap="round"/><polyline points="158,53 166,52 174,51 184,48 196,62" fill="none" stroke="#e0524f" stroke-width="2.4" stroke-linejoin="round" stroke-linecap="round"/><polyline points="254,53 262,52 270,51 280,48 292,62" fill="none" stroke="#e0524f" stroke-width="2.4" stroke-linejoin="round" stroke-linecap="round"/><polyline points="350,53 358,52 366,51 376,48 388,62" fill="none" stroke="#e0524f" stroke-width="2.4" stroke-linejoin="round" stroke-linecap="round"/><text x="14" y="28" font-family="sans-serif" font-size="11" fill="rgba(214,224,238,.80)">II</text><polyline points="20,158 22,158 28,152 34,158 42,158 45,163 51,126 57,167 62,145 70,144 78,143 88,139 100,158 116,158 116,158 118,158 124,152 130,158 138,158 141,163 147,126 153,167 158,145 166,144 174,143 184,139 196,158 212,158 212,158 214,158 220,152 226,158 234,158 237,163 243,126 249,167 254,145 262,144 270,143 280,139 292,158 308,158 308,158 310,158 316,152 322,158 330,158 333,163 339,126 345,167 350,145 358,144 366,143 376,139 388,158 404,158" fill="none" stroke="rgba(240,246,252,.95)" stroke-width="2" stroke-linejoin="round" stroke-linecap="round"/><polyline points="62,145 70,144 78,143 88,139 100,158" fill="none" stroke="#e0524f" stroke-width="2.4" stroke-linejoin="round" stroke-linecap="round"/><polyline points="158,145 166,144 174,143 184,139 196,158" fill="none" stroke="#e0524f" stroke-width="2.4" stroke-linejoin="round" stroke-linecap="round"/><polyline points="254,145 262,144 270,143 280,139 292,158" fill="none" stroke="#e0524f" stroke-width="2.4" stroke-linejoin="round" stroke-linecap="round"/><polyline points="350,145 358,144 366,143 376,139 388,158" fill="none" stroke="#e0524f" stroke-width="2.4" stroke-linejoin="round" stroke-linecap="round"/><text x="14" y="124" font-family="sans-serif" font-size="11" fill="rgba(214,224,238,.80)">III</text><polyline points="20,254 22,254 28,248 34,254 42,254 45,259 51,222 57,263 62,243 70,242 78,241 88,238 100,254 116,254 116,254 118,254 124,248 130,254 138,254 141,259 147,222 153,263 158,243 166,242 174,241 184,238 196,254 212,254 212,254 214,254 220,248 226,254 234,254 237,259 243,222 249,263 254,243 262,242 270,241 280,238 292,254 308,254 308,254 310,254 316,248 322,254 330,254 333,259 339,222 345,263 350,243 358,242 366,241 376,238 388,254 404,254" fill="none" stroke="rgba(240,246,252,.95)" stroke-width="2" stroke-linejoin="round" stroke-linecap="round"/><polyline points="62,243 70,242 78,241 88,238 100,254" fill="none" stroke="#e0524f" stroke-width="2.4" stroke-linejoin="round" stroke-linecap="round"/><polyline points="158,243 166,242 174,241 184,238 196,254" fill="none" stroke="#e0524f" stroke-width="2.4" stroke-linejoin="round" stroke-linecap="round"/><polyline points="254,243 262,242 270,241 280,238 292,254" fill="none" stroke="#e0524f" stroke-width="2.4" stroke-linejoin="round" stroke-linecap="round"/><polyline points="350,243 358,242 366,241 376,238 388,254" fill="none" stroke="#e0524f" stroke-width="2.4" stroke-linejoin="round" stroke-linecap="round"/><text x="14" y="220" font-family="sans-serif" font-size="11" fill="rgba(214,224,238,.80)">aVF</text><polyline points="20,350 22,350 28,344 34,350 42,350 45,355 51,318 57,359 62,357 70,356 78,355 88,362 100,350 116,350 116,350 118,350 124,344 130,350 138,350 141,355 147,318 153,359 158,357 166,356 174,355 184,362 196,350 212,350 212,350 214,350 220,344 226,350 234,350 237,355 243,318 249,359 254,357 262,356 270,355 280,362 292,350 308,350 308,350 310,350 316,344 322,350 330,350 333,355 339,318 345,359 350,357 358,356 366,355 376,362 388,350 404,350" fill="none" stroke="rgba(240,246,252,.95)" stroke-width="2" stroke-linejoin="round" stroke-linecap="round"/><polyline points="62,357 70,356 78,355 88,362 100,350" fill="none" stroke="#e0524f" stroke-width="2.4" stroke-linejoin="round" stroke-linecap="round"/><polyline points="158,357 166,356 174,355 184,362 196,350" fill="none" stroke="#e0524f" stroke-width="2.4" stroke-linejoin="round" stroke-linecap="round"/><polyline points="254,357 262,356 270,355 280,362 292,350" fill="none" stroke="#e0524f" stroke-width="2.4" stroke-linejoin="round" stroke-linecap="round"/><polyline points="350,357 358,356 366,355 376,362 388,350" fill="none" stroke="#e0524f" stroke-width="2.4" stroke-linejoin="round" stroke-linecap="round"/><text x="14" y="316" font-family="sans-serif" font-size="11" fill="rgba(214,224,238,.80)">aVL</text><text x="300" y="28" font-family="sans-serif" font-size="11" fill="#e0524f">ST elevation</text><text x="232" y="402" font-family="sans-serif" font-size="11" fill="#e0524f">Reciprocal ST depression</text></svg>